# xmcd
#
# Track frame offsets:
#	150
#	12465
#	26802
#	40397
#	53852
#	70735
#	87510
#	100800
#	116155
#	127802
#	142560
#	164070
#	182232
#	201615
#
# Disc length: 2902 seconds
#
# Revision: 3
# Processed by: cddbd v1.5.2PL0 Copyright (c) Steve Scherf et al.
# Submitted via: audiograbber 1.83.01
#
DISCID=cb0b540e
DTITLE=Dwight Yoakam - If There Was A Way
DYEAR=1990
DGENRE=Country
TTITLE0=The Distance Between You And Me
TTITLE1=The Heart That You Own
TTITLE2=Takes A Lot To Rock You
TTITLE3=Nothing's Changed Here
TTITLE4=Sad, Sad Music
TTITLE5=Since I Started Drinkin' Again
TTITLE6=If There Was A Way
TTITLE7=Turn It On, Turn It Up, Turn Me Loose
TTITLE8=It Only Hurts When I Cry
TTITLE9=Send A Message To My Heart
TTITLE10=I Don't Need It Done
TTITLE11=You're The One
TTITLE12=Dangerous Man
TTITLE13=Let's Work Together
EXTD=
EXTT0=
EXTT1=
EXTT2=
EXTT3=
EXTT4=
EXTT5=
EXTT6=
EXTT7=
EXTT8=
EXTT9=
EXTT10=
EXTT11=
EXTT12=
EXTT13=
PLAYORDER=
